P3 5 15 255
0 0 255 214 137 0 0 0 255 35 0 0 0 0 255 
214 137 0 0 0 255 35 0 0 0 0 255 0 72 0 
0 0 255 35 0 0 0 0 255 0 72 0 0 0 255 
35 0 0 0 0 255 0 72 0 0 0 255 167 192 0 
0 0 255 0 72 0 0 0 255 167 192 0 0 0 255 
214 137 0 0 0 255 35 0 0 0 0 255 105 0 0 
0 0 255 35 0 0 0 0 255 0 72 0 0 0 255 
35 0 0 0 0 255 0 72 0 0 0 255 0 1 0 
0 0 255 0 72 0 0 0 255 167 192 0 0 0 255 
0 72 0 0 0 255 167 192 0 0 0 255 107 231 0 
0 0 255 35 0 0 0 0 255 105 0 0 0 0 255 
35 0 0 0 0 255 0 72 0 0 0 255 165 0 0 
0 0 255 0 72 0 0 0 255 0 1 0 0 0 255 
0 72 0 0 0 255 167 192 0 0 0 255 0 0 0 
0 0 255 167 192 0 0 0 255 107 231 0 0 0 255 
