P3 21 21 255
 40  40  40	 40  40  40	 40  40  40	 40  40  40	 40  40  40	 40  40  40	 40  40  40	 40  40  40	 40  40  40	 40  40  40	 40  40  40	 40  40  40	 40  40  40	 40  40  40	 40  40  40	 40  40  40	 40  40  40	 40  40  40	 40  40  40	 40  40  40	 40  40  40	
 40  40  40	  0   0 255	 40  40  40	214 137   0	 40  40  40	  0   0 255	 40  40  40	 35   0   0	 40  40  40	  0   0 255	 40  40  40	  0  72   0	 40  40  40	  0   0 255	 40  40  40	167 192   0	 40  40  40	  0   0 255	 40  40  40	105   0   0	 40  40  40	
 40  40  40	 40  40  40	 40  40  40	 40  40  40	 40  40  40	 40  40  40	 40  40  40	 40  40  40	 40  40  40	 40  40  40	 40  40  40	 40  40  40	 40  40  40	 40  40  40	 40  40  40	 40  40  40	 40  40  40	 40  40  40	 40  40  40	 40  40  40	 40  40  40	
 40  40  40	214 137   0	 40  40  40	231   0   0	 40  40  40	 35   0   0	 40  40  40	  0   0   0	 40  40  40	  0  72   0	 40  40  40	  0 244   0	 40  40  40	167 192   0	 40  40  40	252   0   0	 40  40  40	105   0   0	 40  40  40	  0   0   0	 40  40  40	
 40  40  40	 40  40  40	 40  40  40	 40  40  40	 40  40  40	 40  40  40	 40  40  40	 40  40  40	 40  40  40	 40  40  40	 40  40  40	 40  40  40	 40  40  40	 40  40  40	 40  40  40	 40  40  40	 40  40  40	 40  40  40	 40  40  40	 40  40  40	 40  40  40	
 40  40  40	  0   0 255	 40  40  40	 35   0   0	 40  40  40	  0   0 255	 40  40  40	  0  72   0	 40  40  40	  0   0 255	 40  40  40	167 192   0	 40  40  40	  0   0 255	 40  40  40	105   0   0	 40  40  40	  0   0 255	 40  40  40	  0   1   0	 40  40  40	
 40  40  40	 40  40  40	 40  40  40	 40  40  40	 40  40  40	 40  40  40	 40  40  40	 40  40  40	 40  40  40	 40  40  40	 40  40  40	 40  40  40	 40  40  40	 40  40  40	 40  40  40	 40  40  40	 40  40  40	 40  40  40	 40  40  40	 40  40  40	 40  40  40	
 40  40  40	 35   0   0	 40  40  40	  0   0   0	 40  40  40	  0  72   0	 40  40  40	  0 244   0	 40  40  40	167 192   0	 40  40  40	252   0   0	 40  40  40	105   0   0	 40  40  40	  0   0   0	 40  40  40	  0   1   0	 40  40  40	  0 215   0	 40  40  40	
 40  40  40	 40  40  40	 40  40  40	 40  40  40	 40  40  40	 40  40  40	 40  40  40	 40  40  40	 40  40  40	 40  40  40	 40  40  40	 40  40  40	 40  40  40	 40  40  40	 40  40  40	 40  40  40	 40  40  40	 40  40  40	 40  40  40	 40  40  40	 40  40  40	
 40  40  40	  0   0 255	 40  40  40	  0  72   0	 40  40  40	  0   0 255	 40  40  40	167 192   0	 40  40  40	  0   0 255	 40  40  40	105   0   0	 40  40  40	  0   0 255	 40  40  40	  0   1   0	 40  40  40	  0   0 255	 40  40  40	107 231   0	 40  40  40	
 40  40  40	 40  40  40	 40  40  40	 40  40  40	 40  40  40	 40  40  40	 40  40  40	 40  40  40	 40  40  40	 40  40  40	 40  40  40	 40  40  40	 40  40  40	 40  40  40	 40  40  40	 40  40  40	 40  40  40	 40  40  40	 40  40  40	 40  40  40	 40  40  40	
 40  40  40	  0  72   0	 40  40  40	  0 244   0	 40  40  40	167 192   0	 40  40  40	252   0   0	 40  40  40	105   0   0	 40  40  40	  0   0   0	 40  40  40	  0   1   0	 40  40  40	  0 215   0	 40  40  40	107 231   0	 40  40  40	252  34   0	 40  40  40	
 40  40  40	 40  40  40	 40  40  40	 40  40  40	 40  40  40	 40  40  40	 40  40  40	 40  40  40	 40  40  40	 40  40  40	 40  40  40	 40  40  40	 40  40  40	 40  40  40	 40  40  40	 40  40  40	 40  40  40	 40  40  40	 40  40  40	 40  40  40	 40  40  40	
 40  40  40	  0   0 255	 40  40  40	167 192   0	 40  40  40	  0   0 255	 40  40  40	105   0   0	 40  40  40	  0   0 255	 40  40  40	  0   1   0	 40  40  40	  0   0 255	 40  40  40	107 231   0	 40  40  40	  0   0 255	 40  40  40	165   0   0	 40  40  40	
 40  40  40	 40  40  40	 40  40  40	 40  40  40	 40  40  40	 40  40  40	 40  40  40	 40  40  40	 40  40  40	 40  40  40	 40  40  40	 40  40  40	 40  40  40	 40  40  40	 40  40  40	 40  40  40	 40  40  40	 40  40  40	 40  40  40	 40  40  40	 40  40  40	
 40  40  40	167 192   0	 40  40  40	252   0   0	 40  40  40	105   0   0	 40  40  40	  0   0   0	 40  40  40	  0   1   0	 40  40  40	  0 215   0	 40  40  40	107 231   0	 40  40  40	252  34   0	 40  40  40	165   0   0	 40  40  40	  0   0   0	 40  40  40	
 40  40  40	 40  40  40	 40  40  40	 40  40  40	 40  40  40	 40  40  40	 40  40  40	 40  40  40	 40  40  40	 40  40  40	 40  40  40	 40  40  40	 40  40  40	 40  40  40	 40  40  40	 40  40  40	 40  40  40	 40  40  40	 40  40  40	 40  40  40	 40  40  40	
 40  40  40	  0   0 255	 40  40  40	105   0   0	 40  40  40	  0   0 255	 40  40  40	  0   1   0	 40  40  40	  0   0 255	 40  40  40	107 231   0	 40  40  40	  0   0 255	 40  40  40	165   0   0	 40  40  40	  0   0 255	 40  40  40	  0   0   0	 40  40  40	
 40  40  40	 40  40  40	 40  40  40	 40  40  40	 40  40  40	 40  40  40	 40  40  40	 40  40  40	 40  40  40	 40  40  40	 40  40  40	 40  40  40	 40  40  40	 40  40  40	 40  40  40	 40  40  40	 40  40  40	 40  40  40	 40  40  40	 40  40  40	 40  40  40	
 40  40  40	105   0   0	 40  40  40	  0   0   0	 40  40  40	  0   1   0	 40  40  40	  0 215   0	 40  40  40	107 231   0	 40  40  40	252  34   0	 40  40  40	165   0   0	 40  40  40	  0   0   0	 40  40  40	  0   0   0	 40  40  40	  0 168   0	 40  40  40	
 40  40  40	 40  40  40	 40  40  40	 40  40  40	 40  40  40	 40  40  40	 40  40  40	 40  40  40	 40  40  40	 40  40  40	 40  40  40	 40  40  40	 40  40  40	 40  40  40	 40  40  40	 40  40  40	 40  40  40	 40  40  40	 40  40  40	 40  40  40	 40  40  40	
