P3 10 10 255
0 0 255 214 137 0 0 0 255 35 0 0 0 0 255 0 72 0 0 0 255 167 192 0 0 0 255 105 0 0 
214 137 0 231 0 0 35 0 0 0 0 0 0 72 0 0 244 0 167 192 0 252 0 0 105 0 0 0 0 0 
0 0 255 35 0 0 0 0 255 0 72 0 0 0 255 167 192 0 0 0 255 105 0 0 0 0 255 0 1 0 
35 0 0 0 0 0 0 72 0 0 244 0 167 192 0 252 0 0 105 0 0 0 0 0 0 1 0 0 215 0 
0 0 255 0 72 0 0 0 255 167 192 0 0 0 255 105 0 0 0 0 255 0 1 0 0 0 255 107 231 0 
0 72 0 0 244 0 167 192 0 252 0 0 105 0 0 0 0 0 0 1 0 0 215 0 107 231 0 252 34 0 
0 0 255 167 192 0 0 0 255 105 0 0 0 0 255 0 1 0 0 0 255 107 231 0 0 0 255 165 0 0 
167 192 0 252 0 0 105 0 0 0 0 0 0 1 0 0 215 0 107 231 0 252 34 0 165 0 0 0 0 0 
0 0 255 105 0 0 0 0 255 0 1 0 0 0 255 107 231 0 0 0 255 165 0 0 0 0 255 0 0 0 
105 0 0 0 0 0 0 1 0 0 215 0 107 231 0 252 34 0 165 0 0 0 0 0 0 0 0 0 168 0 
